<svg xmlns="http://www.w3.org/2000/svg" width="20" height="20" viewBox="0 0 20 20" fill="none"><g clip-path="url(#a)"><path d="M9.99994 7.76465C8.76549 7.76465 7.76465 8.76549 7.76465 9.99994 7.76465 11.2344 8.76549 12.2352 9.99994 12.2352 11.2344 12.2352 12.2352 11.2352 12.2352 9.99994 12.2352 8.76465 11.2344 7.76465 9.99994 7.76465Z" fill="#8C8E94"/><path d="M12.8908 4.57833C11.0648 4.53379 8.93619 4.53379 7.11014 4.57833 5.68577 4.61782 4.6177 5.68673 4.5782 7.11026 4.53367 8.93631 4.53367 11.0649 4.5782 12.8909 4.6177 14.3145 5.68661 15.3834 7.11014 15.4229 8.93619 15.4674 11.0648 15.4674 12.8908 15.4229 14.3143 15.3834 15.3832 14.3145 15.4227 12.8909 15.4673 11.0649 15.4673 8.93631 15.4227 7.11026 15.3832 5.68673 14.3143 4.61782 12.8908 4.57833ZM10.0001 13.3724C8.13787 13.3724 6.62862 11.8632 6.62862 10.0002 6.62862 8.13715 8.13787 6.62875 10.0001 6.62875 11.8622 6.62875 13.3723 8.13799 13.3723 10.0002 13.3723 11.8624 11.8622 13.3724 10.0001 13.3724ZM13.5614 7.27244C13.1429 7.27244 12.8034 6.93295 12.8034 6.51446 12.8034 6.09597 13.1429 5.75648 13.5614 5.75648 13.9799 5.75648 14.3194 6.09597 14.3194 6.51446 14.3194 6.93295 13.9799 7.27244 13.5614 7.27244Z" fill="#8C8E94"/><path d="M10 0C4.47731 0 0 4.47731 0 10 0 15.5227 4.47731 20 10 20 15.5227 20 20 15.5227 20 10 20 4.47731 15.5227 0 10 0ZM16.5496 13.0101C16.479 14.9748 14.9748 16.479 13.0092 16.5504 11.1546 16.6067 8.84538 16.6067 6.99076 16.5504 5.02605 16.479 3.52185 14.9748 3.45042 13.0101 3.39412 11.1546 3.39412 8.84538 3.45042 6.99076 3.52185 5.02605 5.02605 3.52185 6.99076 3.45042 8.84538 3.39412 11.1546 3.39412 13.0092 3.45042 14.9748 3.52185 16.479 5.02605 16.5496 6.99076 16.6067 8.84538 16.6067 11.1546 16.5496 13.0101Z" fill="#8C8E94"/></g><defs><clipPath id="a"><rect width="20" height="20" fill="white"/></clipPath></defs></svg>
