<svg xmlns="http://www.w3.org/2000/svg" width="20" height="20" viewBox="0 0 20 20" fill="none"><g clip-path="url(#a)"><path d="M10 0C4.47731 0 0 4.47731 0 10 0 15.5227 4.47731 20 10 20 15.5227 20 20 15.5227 20 10 20 4.47731 15.5227 0 10 0ZM7.03193 15.3563H4.84958V8.17815H7.03193V15.3563ZM5.91176 7.19412C5.21765 7.19412 4.65546 6.63193 4.65546 5.93782 4.65546 5.2437 5.21765 4.68151 5.91176 4.68151 6.60588 4.68151 7.16807 5.2437 7.16807 5.93782 7.16807 6.63193 6.60588 7.19412 5.91176 7.19412ZM15.3445 15.3563H13.1193V11.3714C13.1193 10.3613 12.6353 9.97227 12.0378 9.97227H12.0067C11.2563 9.97227 10.6782 10.4151 10.6782 11.6857V15.3563H8.48908V8.17815H10.5353V9.24958C11.0908 8.49664 11.8731 7.96303 12.7605 7.96303H12.8319C14.2193 7.96303 15.3445 9.08824 15.3445 10.4756V15.3571V15.3563Z" fill="#8C8E94"/></g><defs><clipPath id="a"><rect width="20" height="20" fill="white"/></clipPath></defs></svg>
