<svg xmlns="http://www.w3.org/2000/svg" width="20" height="20" viewBox="0 0 20 20" fill="none"><path fill-rule="evenodd" clip-rule="evenodd" d="M10.0228 0H9.97723C4.46696 0 0 4.46696 0 9.97723V10.0228C0 15.533 4.46696 20 9.97723 20H10.0228C15.533 20 20 15.533 20 10.0228V9.97723C20 4.46696 15.533 0 10.0228 0ZM7.30617 8.28224C7.30687 10.8419 9.38934 12.9251 11.949 12.9251C12.5978 12.9244 13.1255 12.3967 13.1255 11.7486C13.1255 11.6806 13.1206 11.6155 13.1093 11.5538C13.0855 11.4151 13.0386 11.2826 12.9685 11.1614C12.958 11.1439 12.9412 11.1327 12.9209 11.1292L11.2161 10.8587C11.2119 10.858 11.2083 10.858 11.2048 10.858C11.1887 10.858 11.1726 10.8636 11.1607 10.8748C10.9953 11.0241 10.8762 11.2147 10.8167 11.427L10.7879 11.5293L10.6891 11.49C9.79995 11.1397 9.08944 10.4299 8.74049 9.54139L8.70196 9.4426L8.80426 9.41387C9.01657 9.35431 9.20716 9.23519 9.35641 9.06983C9.36972 9.05511 9.37603 9.03479 9.37252 9.01517L9.10205 7.31038C9.09925 7.29076 9.08734 7.27394 9.06982 7.26343C8.9486 7.19266 8.81687 7.14571 8.67813 7.12258C8.61507 7.11137 8.54921 7.10577 8.48264 7.10577C7.8352 7.10577 7.30687 7.6334 7.30617 8.28224ZM16.4881 9.43839C16.3501 7.87864 15.6354 6.4317 14.4757 5.36454C13.309 4.29107 11.7955 3.69968 10.2127 3.69968C6.7386 3.69968 3.91199 6.52629 3.91199 10.0003C3.91199 11.1663 4.23361 12.3021 4.84251 13.2915L3.48456 16.2975L7.83239 15.8344C8.58844 16.1441 9.38864 16.301 10.212 16.301C10.4285 16.301 10.6506 16.2898 10.8734 16.2667C11.0696 16.2457 11.2679 16.2148 11.4627 16.1756C14.372 15.5877 16.4958 13.0056 16.5126 10.034V10.0003C16.5126 9.81116 16.5049 9.62127 16.4881 9.43839ZM5.59437 14.7714L7.99986 14.5149L8.00056 14.5163L8.09165 14.5605C8.15401 14.5906 8.22058 14.62 8.28855 14.6474C8.90025 14.9024 9.5477 15.0314 10.2141 15.0314C10.4011 15.0314 10.5896 15.0208 10.7732 14.9998C10.9498 14.9809 11.1271 14.9515 11.3001 14.9129C13.5676 14.4112 15.1883 12.4409 15.2416 10.1209L15.2417 10.1129C15.2423 10.0746 15.243 10.0384 15.243 10.0018C15.243 9.86442 15.2367 9.72498 15.2254 9.58624C15.0131 6.99856 12.8108 4.97145 10.2127 4.97145C7.4393 4.97145 5.18305 7.22769 5.18305 10.0011C5.18305 11.0647 5.51239 12.0821 6.13601 12.9433C6.14792 12.9594 6.15843 12.9734 6.16894 12.9874L6.31258 13.1801L5.59437 14.7714Z" fill="#8C8E94"/></svg>
