<svg xmlns="http://www.w3.org/2000/svg" fill="none" viewBox="0 0 480 90"><path fill="#fff" d="M26.87 57.43c0 11.27 2.18 12.3 13.2 12.3h17.68c9.42 0 13.33-.74 14.63-7.18l23.06 1.17c-3.92 18.7-13.76 25.71-34.5 25.71H36.88c-12.18 0-19.71-2.34-25.21-8.03C6 76.15 3.84 68.68 3.84 56.13V34.2c0-12.72 2.18-19.87 7.83-25.42C17.3 3.08 24.69.73 36.87.73H61.1c12.33.15 19.72 2.5 25.36 7.89 5.65 5.54 7.83 12.28 7.83 25.42v20.6H26.87zm44.22-21.2v-2.78c0-11.98-2.17-13.05-13.2-13.05H40.22c-11.02 0-13.2 1.08-13.2 13.05v2.78H71.1Zm153.69-2.73c0-12.29-2.07-13.11-13.53-13.11h-5.2c-11.47 0-14.31.82-14.31 13.12v55.92h-23.37V33.51c0-12.3-1.76-13.12-12.64-13.12h-20.51v69.04H111.9V.73h40.48c13.78 0 20.88 2.64 26.96 9.94 6.1-7.3 13.35-9.94 27.42-9.94h7.86c12.76 0 20 2.34 25.65 8.04 5.65 5.69 7.83 12.86 7.83 25.29v55.4h-23.35V33.5h.02ZM265.54.73h23.49v88.7h-23.51V.73zm102.43 68.68h-25.1c-10.87 0-13.01-1.08-13.01-12.04V33.51c0-12.3 2.14-12.94 13.16-12.94h24.95V.73H340.7c-12.32 0-20.78 2.34-26.3 8.04-5.65 5.54-7.83 12.44-7.83 24.55v23.89c0 11.34 2.18 18.79 7.83 24.19 5.64 5.69 13.98 8.03 26.3 8.03h27.26V69.41ZM469.3 8.73c-5.64-5.67-12.88-8-25.34-8h-24.33c-12.45 0-19.7 2.33-25.34 8-5.65 5.53-9.26 12.57-9.26 24.94v23.74c0 11.16 3.61 18.52 9.26 24.04 5.65 5.68 12.89 8 25.34 8h24.33c12.46 0 19.7-2.32 25.35-8 5.64-5.52 9.26-12.86 9.26-24.04V33.67c0-12.37-3.6-19.41-9.26-24.94ZM455.14 57.4c0 11.16-2.33 12.11-13.47 12.11h-19.68c-11.15 0-13.47-.95-13.47-12.11V33.67c0-12.37 2.32-13.2 13.32-13.2h19.97c11 0 13.33.83 13.33 13.2v23.74Z"/></svg>
